<?xml version="1.0" encoding="UTF-8"?>
<svg width="40px" height="40px" viewBox="0 0 40 40" version="1.1" xmlns="http://www.w3.org/2000/svg" xmlns:xlink="http://www.w3.org/1999/xlink">
    <!-- Generator: Sketch 52.5 (67469) - http://www.bohemiancoding.com/sketch -->
    <title>icon_movies</title>
    <desc>Created with Sketch.</desc>
    <g id="icon_movies" stroke="none" stroke-width="1" fill="none" fill-rule="evenodd">
        <path d="M30.5599682,17.7902145 C30.289019,17.6445814 29.9625185,17.6644177 29.7099695,17.8418556 L25.3399759,20.9403197 C25.1563309,19.2911635 23.9283004,17.972092 22.3399803,17.717917 C24.3579341,17.0284053 25.5929485,14.9280723 25.254844,12.7607404 C24.9167395,10.5934085 23.1055002,9 20.9799824,9 C18.8544645,9 17.0432252,10.5934085 16.7051207,12.7607404 C16.3670162,14.9280723 17.6020306,17.0284053 19.6199844,17.717917 L13.9499927,17.717917 C15.6249903,17.060736 16.5904437,15.2450164 16.2286066,13.432548 C15.8667696,11.6200796 14.2846526,10.3468859 12.4945747,10.427621 C10.7044967,10.5083561 9.23585944,11.9191432 9.02837166,13.7572889 C8.82088389,15.5954347 9.93590853,17.3173217 11.6599961,17.8211992 C10.1101908,18.2015551 9.01209355,19.6256256 9,21.2708226 L9,27.4677509 C9.02191202,29.4252221 10.5646051,31.0001308 12.4599949,31 L22.0999807,31 C23.7964826,30.8644021 25.1561898,29.4948477 25.3299759,27.7466126 L29.6999695,30.8450768 C29.837811,30.9447257 30.0017201,30.9987541 30.1699688,31 C30.6283645,31 30.9999676,30.6161998 30.9999676,30.1427583 L30.9999676,18.5545023 C31.002695,18.2349504 30.8330991,17.9403589 30.5599682,17.7902145 Z M17.6699872,13.4833494 C17.6699872,11.5553585 19.1832625,9.99241309 21.0499822,9.99241309 C22.916702,9.99241309 24.4299773,11.5553585 24.4299773,13.4833494 C24.4299773,15.4113402 22.916702,16.9742856 21.0499822,16.9742856 C19.1832625,16.9742856 17.6699872,15.4113402 17.6699872,13.4833494 Z M9.99999853,14.1650115 C10.016376,13.0447353 10.6850235,12.0451451 11.6937433,11.6329588 C12.702463,11.2207725 13.852282,11.4772951 14.6063392,12.2827539 C15.3603963,13.0882126 15.5699516,14.2837282 15.1371617,15.3111036 C14.7043718,16.3384789 13.7146058,16.995061 12.6299947,16.9742856 C11.1537328,16.9460083 9.97770712,15.6898169 9.99999853,14.1650115 Z M29.9999691,29.8948811 L24.3899773,25.9081906 L24.3899773,27.0649505 C24.3899773,28.490244 23.4499787,30.0084915 22.0599808,30.0084915 L12.4599949,30.0084915 C11.0972072,29.9804578 10.0051588,28.8342254 9.99999853,27.426438 L9.99999853,21.2295097 C10.0054794,19.8058324 11.1215617,18.6531171 12.4999948,18.6474563 L22.0999807,18.6474563 C23.4899787,18.6474563 24.4299773,20.1760319 24.4299773,21.5909972 L24.4299773,22.7477572 L29.9999691,18.8023795 L29.9999691,29.8948811 Z" id="icon_mobile_movie_film_black" fill="#378F7B" fill-rule="nonzero"></path>
    </g>
</svg>