<?xml version="1.0" encoding="UTF-8"?>
<svg width="40px" height="40px" viewBox="0 0 40 40" version="1.1" xmlns="http://www.w3.org/2000/svg" xmlns:xlink="http://www.w3.org/1999/xlink">
    <!-- Generator: Sketch 52.5 (67469) - http://www.bohemiancoding.com/sketch -->
    <title>icon_retail</title>
    <desc>Created with Sketch.</desc>
    <g id="icon_retail" stroke="none" stroke-width="1" fill="none" fill-rule="evenodd">
        <path d="M17.58,31 L9,22.42 L19.38,12.09 L26.6,9 L31,13.4 L27.81,20.77 L17.58,31 Z M10.31,22.42 L17.58,29.69 L27.09,20.18 L29.9,13.62 L26.38,10.1 L19.82,12.91 L10.31,22.42 Z M25.5,16.36 C24.613295,16.3601986 23.8497387,15.7344467 23.6757442,14.8649803 C23.5017496,13.995514 23.9657018,13.1241174 24.7841987,12.783077 C25.6026957,12.4420366 26.5481271,12.7261901 27.0429827,13.4619643 C27.5378384,14.1977384 27.4445073,15.1805268 26.82,15.81 C26.4708701,16.161906 25.9957111,16.359889 25.5,16.36 Z M25.5,13.56 C25.0509043,13.5603258 24.6647681,13.8782802 24.5782786,14.3189691 C24.4917891,14.7596579 24.7291077,15.1999715 25.144767,15.3700139 C25.5604263,15.5400563 26.0383088,15.3923251 26.2854902,15.0173738 C26.5326717,14.6424226 26.4801001,14.1449968 26.16,13.83 C25.9840015,13.6568074 25.7469233,13.5598209 25.5,13.56 Z" id="icon_mobile_percentage_badge_black" fill="#378F7B" fill-rule="nonzero"></path>
    </g>
</svg>