<?xml version="1.0" encoding="UTF-8"?>
<svg width="40px" height="40px" viewBox="0 0 40 40" version="1.1" xmlns="http://www.w3.org/2000/svg" xmlns:xlink="http://www.w3.org/1999/xlink">
    <!-- Generator: Sketch 52.5 (67469) - http://www.bohemiancoding.com/sketch -->
    <title>icon_food</title>
    <desc>Created with Sketch.</desc>
    <g id="icon_food" stroke="none" stroke-width="1" fill="none" fill-rule="evenodd">
        <path d="M16.9,13.9278513 L15.9,13.9278513 L15.9,9.31785132 L16.9,9.31785132 L16.9,13.9278513 Z M16.9,16.9278513 L15.9,16.9278513 L15.9,30.9978513 L16.9,30.9978513 L16.9,16.9278513 Z M18.81,13.6378513 L18.81,9.31785132 L17.81,9.31785132 L17.81,13.6378513 C17.7078376,14.3351396 17.1097327,14.8519994 16.405,14.8519994 C15.7002673,14.8519994 15.1021624,14.3351396 15,13.6378513 L15,9.31785132 L14,9.31785132 L14,13.6378513 C14.0818148,14.9059816 15.1342332,15.8926901 16.405,15.8926901 C17.6757668,15.8926901 18.7281852,14.9059816 18.81,13.6378513 Z M23.81,21.7478513 L22.81,21.7478513 L22.81,30.9978513 L23.81,30.9978513 L23.81,21.7478513 Z M23.68,9.12785132 C23.5355175,8.99617322 23.3265911,8.96297132 23.1484057,9.04337207 C22.9702203,9.12377281 22.8568715,9.3023915 22.86,9.49785132 L22.86,14.2378513 L23.86,14.2378513 L23.86,10.7678513 C24.6001084,11.7772565 24.9994138,12.9961889 25,14.2478513 L26,14.2478513 C25.9883951,12.2892614 25.1449609,10.4278893 23.68,9.12785132 Z M26,13.8978513 L25,13.8978513 L25,19.7578513 L23.84,19.7578513 L23.84,12.9978513 L22.84,12.9978513 L22.84,20.7778513 L26,20.7778513 L26,13.8978513 Z" fill="#378F7B" fill-rule="nonzero"></path>
    </g>
</svg>