<?xml version="1.0" encoding="UTF-8"?>
<svg width="48px" height="66px" viewBox="0 0 48 66" version="1.1" xmlns="http://www.w3.org/2000/svg" xmlns:xlink="http://www.w3.org/1999/xlink">
    <!-- Generator: Sketch 52.5 (67469) - http://www.bohemiancoding.com/sketch -->
    <title>Oval</title>
    <desc>Created with Sketch.</desc>
    <defs>
        <path d="M20,58 C33.3333333,40.1741934 40,27.553823 40,20.1388889 C40,9.01648768 31.045695,0 20,0 C8.954305,0 0,9.01648768 0,20.1388889 C0,27.553823 6.66666667,40.1741934 20,58 Z" id="path-1"></path>
        <filter x="-17.5%" y="-8.6%" width="135.0%" height="124.1%" filterUnits="objectBoundingBox" id="filter-2">
            <feOffset dx="0" dy="2" in="SourceAlpha" result="shadowOffsetOuter1"></feOffset>
            <feGaussianBlur stdDeviation="2" in="shadowOffsetOuter1" result="shadowBlurOuter1"></feGaussianBlur>
            <feComposite in="shadowBlurOuter1" in2="SourceAlpha" operator="out" result="shadowBlurOuter1"></feComposite>
            <feColorMatrix values="0 0 0 0 0   0 0 0 0 0   0 0 0 0 0  0 0 0 0.240460824 0" type="matrix" in="shadowBlurOuter1"></feColorMatrix>
        </filter>
    </defs>
    <g id="Page-1" stroke="none" stroke-width="1" fill="none" fill-rule="evenodd">
        <g id="transaction_details_1" transform="translate(-164.000000, -180.000000)" fill-rule="nonzero">
            <g id="map-marker" transform="translate(168.000000, 182.000000)">
                <g id="Oval">
                    <use fill="black" fill-opacity="1" filter="url(#filter-2)" xlink:href="#path-1"></use>
                    <path stroke="#47B89E" stroke-width="1" d="M20,57.1640945 C33.0018578,39.7076479 39.5,27.3335691 39.5,20.1388889 C39.5,9.29185843 30.7687751,0.5 20,0.5 C9.23122493,0.5 0.5,9.29185843 0.5,20.1388889 C0.5,27.3335691 6.99814224,39.7076479 20,57.1640945 Z" stroke-linejoin="square" fill="#FFFFFF" fill-rule="evenodd"></path>
                </g>
            </g>
        </g>
    </g>
    <g id="icon_online_retail" stroke="none" stroke-width="1" fill="none" fill-rule="evenodd">
        <g id="icon_mobile_ecommerce_green" transform="translate(9.000000, 11.000000)" fill="#378F7B">
            <path d="M19.455,17.8448515 C18.6266125,17.8228997 17.9706939,17.1374402 17.9852325,16.3088895 C17.9997711,15.4803388 18.679334,14.818313 19.5079816,14.8254372 C20.3366292,14.8325613 21.0047092,15.5061733 21.005,16.3348515 C21.002404,16.7414957 20.8369736,17.1301434 20.545693,17.4139071 C20.2544123,17.6976709 19.8615732,17.8528858 19.455,17.8448515 Z M19.455,15.7748515 C19.1457205,15.7748515 18.895,16.025572 18.895,16.3348515 C18.895,16.6441309 19.1457205,16.8948515 19.455,16.8948515 C19.7642795,16.8948515 20.015,16.6441309 20.015,16.3348515 C20.015,16.025572 19.7642795,15.7748515 19.455,15.7748515 Z M12.205,17.8448515 C11.3723741,17.8393373 10.7013446,17.160865 10.7050147,16.3282289 C10.7086847,15.4955928 11.3856691,14.8230623 12.2183113,14.8248882 C13.0509535,14.8267141 13.7249817,15.5022073 13.725,16.3348515 C13.7223565,16.7379833 13.5596734,17.1235527 13.2727408,17.4067345 C12.9858082,17.6899163 12.5981317,17.8475124 12.195,17.8448515 L12.205,17.8448515 Z M12.205,15.7748515 C11.8957205,15.7748515 11.645,16.025572 11.645,16.3348515 C11.645,16.6441309 11.8957205,16.8948515 12.205,16.8948515 C12.5142795,16.8948515 12.765,16.6441309 12.765,16.3348515 C12.765024,16.1845813 12.7046534,16.0406064 12.5974602,15.9352938 C12.490267,15.8299811 12.3452462,15.7721681 12.195,15.7748515 L12.205,15.7748515 Z M21.115,6.39485146 L10.005,6.39485146 C10.2666895,6.7096928 10.5040414,7.04399124 10.715,7.39485146 L21.005,7.28485146 L21.065,12.6048515 L15.305,12.6048515 C13.7241385,12.5065387 12.2773368,11.6834857 11.385,10.3748515 L10.005,8.06485146 C9.215,6.73485146 7.695,5.35485146 6.515,5.35485146 L4.895,5.35485146 L4.895,6.35485146 L6.515,6.35485146 C7.155,6.35485146 8.405,7.27485146 9.185,8.58485146 L10.555,10.9048515 C11.6108831,12.5125934 13.373557,13.5166481 15.295,13.6048515 L21.105,13.6048515 C21.3410427,13.6048515 21.5674177,13.5110839 21.734325,13.3441765 C21.9012324,13.1772691 21.995,12.9508941 21.995,12.7148515 L21.995,7.28485146 C21.9950308,6.79719694 21.6026237,6.40033073 21.115,6.39485146 Z" id="icon_mobile_ecommerce" fill-rule="nonzero"></path>
            <path d="M8.715,9.46485146 L8.415,8.52485146 L2.415,8.52485146 C2.02698257,8.53020394 1.65301049,8.3798027 1.37674168,8.10729265 C1.10047288,7.83478261 0.944963085,7.46290581 0.945,7.07485146 L0.945,2.54485146 C0.945,1.74403857 1.59418711,1.09485146 2.395,1.09485146 L11.255,1.09485146 C12.0558129,1.09485146 12.705,1.74403857 12.705,2.54485146 L12.705,5.54485146 L13.645,5.54485146 L13.645,2.54485146 C13.639521,1.22716706 12.5726844,0.16033047 11.255,0.154851462 L2.395,0.154851462 C1.0773156,0.16033047 0.0104790082,1.22716706 0.005,2.54485146 L0.005,7.07485146 C0.0104790082,8.39253586 1.0773156,9.45937245 2.395,9.46485146 L5.175,9.46485146 L4.695,11.5948515 L9.005,11.5948515 L8.475,9.46485146 L8.715,9.46485146 Z M5.875,10.6648515 L6.105,9.66485146 L7.555,9.66485146 L7.785,10.6648515 L5.875,10.6648515 Z" id="Path"></path>
        </g>
    </g>
</svg>