<?xml version="1.0" encoding="UTF-8"?>
<svg width="48px" height="66px" viewBox="0 0 48 66" version="1.1" xmlns="http://www.w3.org/2000/svg" xmlns:xlink="http://www.w3.org/1999/xlink">
    <!-- Generator: Sketch 52.5 (67469) - http://www.bohemiancoding.com/sketch -->
    <title>Oval</title>
    <desc>Created with Sketch.</desc>
    <defs>
        <path d="M20,58 C33.3333333,40.1741934 40,27.553823 40,20.1388889 C40,9.01648768 31.045695,0 20,0 C8.954305,0 0,9.01648768 0,20.1388889 C0,27.553823 6.66666667,40.1741934 20,58 Z" id="path-1"></path>
        <filter x="-17.5%" y="-8.6%" width="135.0%" height="124.1%" filterUnits="objectBoundingBox" id="filter-2">
            <feOffset dx="0" dy="2" in="SourceAlpha" result="shadowOffsetOuter1"></feOffset>
            <feGaussianBlur stdDeviation="2" in="shadowOffsetOuter1" result="shadowBlurOuter1"></feGaussianBlur>
            <feComposite in="shadowBlurOuter1" in2="SourceAlpha" operator="out" result="shadowBlurOuter1"></feComposite>
            <feColorMatrix values="0 0 0 0 0   0 0 0 0 0   0 0 0 0 0  0 0 0 0.240460824 0" type="matrix" in="shadowBlurOuter1"></feColorMatrix>
        </filter>
    </defs>
    <g id="Page-1" stroke="none" stroke-width="1" fill="none" fill-rule="evenodd">
        <g id="transaction_details_1" transform="translate(-164.000000, -180.000000)" fill-rule="nonzero">
            <g id="map-marker" transform="translate(168.000000, 182.000000)">
                <g id="Oval">
                    <use fill="black" fill-opacity="1" filter="url(#filter-2)" xlink:href="#path-1"></use>
                    <path stroke="#47B89E" stroke-width="1" d="M20,57.1640945 C33.0018578,39.7076479 39.5,27.3335691 39.5,20.1388889 C39.5,9.29185843 30.7687751,0.5 20,0.5 C9.23122493,0.5 0.5,9.29185843 0.5,20.1388889 C0.5,27.3335691 6.99814224,39.7076479 20,57.1640945 Z" stroke-linejoin="square" fill="#FFFFFF" fill-rule="evenodd"></path>
                </g>
            </g>
        </g>
    </g>
    <g id="icon_food" stroke="none" stroke-width="1" fill="none" fill-rule="evenodd">
        <path d="M16.9,13.9278513 L15.9,13.9278513 L15.9,9.31785132 L16.9,9.31785132 L16.9,13.9278513 Z M16.9,16.9278513 L15.9,16.9278513 L15.9,30.9978513 L16.9,30.9978513 L16.9,16.9278513 Z M18.81,13.6378513 L18.81,9.31785132 L17.81,9.31785132 L17.81,13.6378513 C17.7078376,14.3351396 17.1097327,14.8519994 16.405,14.8519994 C15.7002673,14.8519994 15.1021624,14.3351396 15,13.6378513 L15,9.31785132 L14,9.31785132 L14,13.6378513 C14.0818148,14.9059816 15.1342332,15.8926901 16.405,15.8926901 C17.6757668,15.8926901 18.7281852,14.9059816 18.81,13.6378513 Z M23.81,21.7478513 L22.81,21.7478513 L22.81,30.9978513 L23.81,30.9978513 L23.81,21.7478513 Z M23.68,9.12785132 C23.5355175,8.99617322 23.3265911,8.96297132 23.1484057,9.04337207 C22.9702203,9.12377281 22.8568715,9.3023915 22.86,9.49785132 L22.86,14.2378513 L23.86,14.2378513 L23.86,10.7678513 C24.6001084,11.7772565 24.9994138,12.9961889 25,14.2478513 L26,14.2478513 C25.9883951,12.2892614 25.1449609,10.4278893 23.68,9.12785132 Z M26,13.8978513 L25,13.8978513 L25,19.7578513 L23.84,19.7578513 L23.84,12.9978513 L22.84,12.9978513 L22.84,20.7778513 L26,20.7778513 L26,13.8978513 Z" fill="#378F7B" fill-rule="nonzero"></path>
    </g>
</svg>